<svg width="30" height="30" viewBox="0 0 30 30" fill="none" xmlns="http://www.w3.org/2000/svg">
<path d="M28.5938 9.79687C25.6875 7.17187 22.7813 4.5 19.875 1.875C15.6094 8.34375 8.39063 14.1094 1.54687 18.2812C1.35937 19.1719 1.17188 20.0156 0.9375 20.8594C3.9375 23.5781 6.9375 26.3437 9.9375 29.0625C17.0156 25.1719 24.5156 19.6406 29.0625 13.3594C28.9219 12.1875 28.7344 11.0156 28.5938 9.79687Z" fill="#699635"/>
<path d="M10.5 25.5938C7.54687 22.875 4.59375 20.1563 1.64062 17.4844C9 13.3125 15.1875 7.64063 19.7344 0.9375C22.6875 3.65625 25.6406 6.32813 28.5938 9.04688C24.0469 15.75 17.8594 21.4219 10.5 25.5938" fill="#83BF4F"/>
<path d="M9.75 23.8125C7.78125 22.0313 5.8125 20.2031 3.84375 18.4219C3.98438 18.3281 4.07813 18.2813 4.21875 18.1875C4.59375 17.9531 4.6875 17.5313 4.35938 17.2031L4.07812 16.9219C10.0312 13.2656 15.1875 8.57813 19.2187 3.14062L19.5 3.42188C19.8281 3.70313 20.2969 3.65625 20.5781 3.32813C20.6719 3.23438 20.7188 3.09375 20.8125 3C22.7813 4.78125 24.75 6.60938 26.7187 8.39063C26.625 8.48438 26.5781 8.625 26.4844 8.71875C26.2031 9.09375 26.25 9.60938 26.5781 9.9375L26.8594 10.2188C22.8281 15.6094 17.6719 20.2969 11.7187 23.9531L11.4375 23.6719C11.1094 23.3906 10.5469 23.3438 10.125 23.5781C9.98438 23.6719 9.89062 23.7188 9.75 23.8125V23.8125ZM5.10937 18.4688C6.70312 19.9219 8.29688 21.375 9.9375 22.875C10.5469 22.6875 11.25 22.7344 11.8125 23.0156C17.25 19.5469 21.9844 15.2344 25.7812 10.2188C25.4531 9.70313 25.4062 9.04688 25.6406 8.48438C24.0469 7.03125 22.4531 5.57813 20.8125 4.07813C20.3906 4.45313 19.7812 4.5 19.2656 4.21875C15.4687 9.28125 10.7344 13.5938 5.29688 17.0625C5.57813 17.5313 5.53125 18.0938 5.10937 18.4688" fill="#699635"/>
<path d="M9.375 17.4844C9.89063 17.2969 10.4531 17.3437 10.8281 17.6719C10.5938 17.8594 10.3125 18.0469 10.0781 18.2344C9.98438 18.1406 9.75 18.1406 9.65625 18.2344C9.51563 18.3281 9.46875 18.4688 9.60938 18.5625C9.70313 18.6563 9.9375 18.6563 10.0781 18.5625C10.6406 18.1875 11.4375 18.1406 11.8594 18.5625C12.1875 18.8906 12.2344 19.3594 11.9063 19.7344C12 19.8281 12.0938 19.875 12.1875 19.9688C11.9531 20.1094 11.7188 20.2969 11.4844 20.4375C11.3906 20.3438 11.2969 20.25 11.2031 20.2031C10.6875 20.3438 10.125 20.2969 9.79688 19.9688C10.0781 19.7813 10.3125 19.6406 10.5938 19.4531C10.6875 19.5469 10.9219 19.5469 11.0625 19.4531C11.2031 19.3594 11.2031 19.2188 11.1094 19.125C11.0156 19.0313 10.8281 19.0313 10.6875 19.125C10.3594 19.3594 9.9375 19.4531 9.5625 19.4063C9.28125 19.3594 9.04688 19.2656 8.85938 19.125C8.53125 18.7969 8.53125 18.375 8.8125 18C8.71875 17.9531 8.67188 17.8594 8.57812 17.7656C8.8125 17.625 9.04688 17.4375 9.28125 17.2969C9.23438 17.3438 9.32813 17.3906 9.375 17.4844" fill="#699635"/>
<path d="M20.25 7.45313C20.6719 7.17187 21.1875 7.17188 21.5156 7.5L20.9531 8.20313C20.8594 8.10938 20.6719 8.10938 20.5781 8.25C20.4844 8.39063 20.4844 8.57813 20.5781 8.67188C20.6719 8.76563 20.8594 8.76563 20.9531 8.625C21.375 8.10938 22.0781 8.01563 22.5 8.39063C22.8281 8.71875 22.9219 9.23438 22.7344 9.70313C22.8281 9.79688 22.9219 9.84375 23.0156 9.9375C22.8281 10.1719 22.6875 10.3594 22.5 10.5938C22.4062 10.5 22.3125 10.4063 22.2187 10.3594C21.7969 10.5938 21.3281 10.5938 21 10.2656C21.1875 10.0313 21.4219 9.79688 21.6094 9.5625C21.7031 9.65625 21.8906 9.65625 21.9844 9.51563C22.0781 9.375 22.0781 9.1875 21.9844 9.09375C21.8906 9 21.7031 9 21.6094 9.14063C21.375 9.42188 21 9.60938 20.6719 9.60938C20.4375 9.60938 20.2031 9.51563 20.0156 9.375C19.6875 9.04688 19.5937 8.57813 19.7812 8.10937C19.6875 8.0625 19.6406 7.96875 19.5469 7.875C19.7344 7.6875 19.9219 7.45313 20.0625 7.21875C20.0625 7.3125 20.1562 7.35938 20.25 7.45313" fill="#699635"/>
<path d="M18.8438 16.6406C17.3438 18 14.8125 17.9531 13.3594 16.6406C11.9063 15.2813 12 13.1719 13.5 11.8125C15 10.4531 17.3438 10.3125 18.7969 11.6719C20.2969 12.9844 20.3438 15.2813 18.8438 16.6406" fill="#699635"/>
<path d="M10.2188 11.4844L19.0781 19.5938C20.1094 18.75 21.0469 17.8594 21.9844 16.9219L13.1719 8.8125C12.2344 9.70313 11.25 10.5938 10.2188 11.4844Z" fill="#FFDD7D"/>
<path d="M19.125 23.1562C20.1094 22.4062 21.0937 21.6094 22.0312 20.8125V16.875C21.0937 17.8125 20.1094 18.7031 19.125 19.5469V23.1562" fill="#DBB471"/>
<path d="M5.67188 11.5781C6.1875 11.3906 6.60937 11.1094 7.03125 10.7812C7.45312 10.4531 7.82812 10.125 8.25 9.74999C8.67187 9.42187 9.09375 9.04687 9.5625 8.81249C10.0312 8.53124 10.6406 8.39062 11.1562 8.48437C10.6406 8.57812 10.1719 8.81249 9.75 9.14062C9.32812 9.42187 8.95312 9.79687 8.53125 10.125C8.10937 10.4531 7.6875 10.8281 7.21875 11.1094C6.75 11.3906 6.1875 11.5781 5.67188 11.5781" fill="#8D9998"/>
<path d="M18.6562 15.5156C18.6562 15.5156 20.9531 16.1719 26.2969 14.7656C31.6406 13.3594 29.1094 28.7344 19.3594 28.7344C18.2812 28.7344 18.2344 27.375 21.2344 24.9375C21.2344 24.9375 17.0156 25.9219 18.8437 22.7812C18.8437 22.7812 15.8437 23.2969 17.2031 20.9062C17.2031 20.9062 17.8125 19.125 17.25 17.1094C17.2969 17.1094 17.625 16.0781 18.6562 15.5156" fill="#E8E8E8"/>
<path d="M28.8281 16.2656C28.9219 20.3906 25.6406 27.2344 19.125 27.2344H19.0312C18.4219 28.2187 18.7031 28.7812 19.3594 28.7812C26.7656 28.7344 30 19.9219 28.8281 16.2656Z" fill="#D1D1D1"/>
<path d="M25.4531 18.5156C24.0469 23.5781 18.4219 24 18.4219 24C18.1875 25.0781 18.6563 25.5469 19.2656 25.5469C21.3281 25.5937 25.1719 22.1719 25.4531 18.5156Z" fill="#D1D1D1"/>
<path d="M21.5156 18.5156C18.1875 23.2031 17.0156 21.4687 17.0156 21.4687C16.1719 23.3437 18.375 23.3437 18.75 22.9219C19.8281 21.75 21.5625 19.3125 21.5156 18.5156Z" fill="#D1D1D1"/>
<path d="M18.9844 27.375C19.5469 26.625 20.25 26.0156 20.9531 25.4062C21.6562 24.7969 22.3594 24.1875 23.0625 23.5312C23.7187 22.875 24.375 22.125 24.8437 21.2812C25.3125 20.4375 25.5469 19.4531 25.4531 18.5156C25.3594 19.4531 25.0312 20.3437 24.5156 21.0937C24 21.8437 23.3906 22.5469 22.7344 23.2031C22.0781 23.8594 21.375 24.4687 20.7187 25.1719C20.0156 25.7812 19.4062 26.5312 18.9844 27.375" fill="#8D9998"/>
<path d="M18.4219 24C18.6094 23.4844 18.8906 23.0625 19.2187 22.6406C19.5469 22.2188 19.875 21.8438 20.25 21.4219C20.5781 21 20.9531 20.5781 21.1875 20.1094C21.4688 19.6406 21.6094 19.0313 21.5156 18.5156C21.4219 19.0313 21.1875 19.5 20.8594 19.9219C20.5781 20.3438 20.2031 20.7188 19.875 21.1406C19.5469 21.5625 19.1719 21.9844 18.8906 22.4531C18.6094 22.9219 18.4219 23.4844 18.4219 24" fill="#8D9998"/>
<path d="M14.2188 11.3864C14.2188 11.3864 13.5625 9.08953 14.9688 3.74578C16.375 -1.59797 1 0.933278 1 10.6833C1 11.7614 2.35938 11.8083 4.79688 8.80828C4.79688 8.80828 3.8125 13.027 6.95313 11.1989C6.95313 11.1989 6.4375 14.1989 8.82813 12.8395C8.82813 12.8395 10.6094 12.2302 12.625 12.7927C12.625 12.7458 13.6563 12.4177 14.2188 11.3864" fill="#E8E8E8"/>
<path d="M13.4063 1.17187C9.28125 1.07812 2.4375 4.35937 2.4375 10.875V10.9687C1.45313 11.5312 0.9375 11.2969 0.9375 10.6406C0.9375 3.23437 9.75 -8.53932e-06 13.4063 1.17187Z" fill="#D1D1D1"/>
<path d="M11.1563 4.54688C6.09375 5.95313 5.67188 11.5781 5.67188 11.5781C4.59375 11.8125 4.125 11.3438 4.125 10.7344C4.07813 8.67188 7.5 4.82813 11.1563 4.54688Z" fill="#D1D1D1"/>
<path d="M11.1563 8.48436C6.46876 11.8125 8.20313 12.9844 8.20313 12.9844C6.32813 13.8281 6.32813 11.625 6.75001 11.25C7.92188 10.1719 10.3594 8.43748 11.1563 8.48436Z" fill="#D1D1D1"/>
<path d="M2.29688 11.0156C3.04687 10.4531 3.65625 9.74999 4.26562 9.04686C4.875 8.34374 5.48437 7.64061 6.14062 6.93749C6.79687 6.28124 7.54687 5.62499 8.39062 5.15624C9.23437 4.68749 10.2187 4.45311 11.1562 4.54686C10.2187 4.64061 9.32812 4.96874 8.57812 5.48436C7.82812 5.99999 7.125 6.60936 6.46875 7.26561C5.8125 7.92186 5.20312 8.62499 4.5 9.28124C3.84375 9.98436 3.14062 10.5937 2.29688 11.0156" fill="#8D9998"/>
</svg>
