<svg width="17" height="18" viewBox="0 0 17 18" fill="none" xmlns="http://www.w3.org/2000/svg">
<path fill-rule="evenodd" clip-rule="evenodd" d="M8.5 0.5C3.80568 0.5 0 4.30568 0 9C0 13.6943 3.80568 17.5 8.5 17.5C13.1943 17.5 17 13.6943 17 9C17 4.30568 13.1943 0.5 8.5 0.5ZM12.1844 7.56273C12.2522 7.48518 12.3039 7.39484 12.3363 7.29704C12.3687 7.19923 12.3812 7.09593 12.3731 6.99322C12.365 6.8905 12.3365 6.79044 12.2891 6.69892C12.2418 6.6074 12.1766 6.52627 12.0975 6.46031C12.0183 6.39435 11.9268 6.34488 11.8282 6.31482C11.7297 6.28476 11.6261 6.27472 11.5236 6.28528C11.4211 6.29584 11.3217 6.32679 11.2314 6.37631C11.141 6.42583 11.0615 6.49292 10.9975 6.57364L7.67473 10.5601L5.95541 8.84005C5.80967 8.69929 5.61448 8.6214 5.41187 8.62316C5.20927 8.62492 5.01546 8.70619 4.87219 8.84946C4.72892 8.99273 4.64765 9.18654 4.64589 9.38914C4.64413 9.59175 4.72201 9.78694 4.86277 9.93268L7.18095 12.2509C7.25688 12.3267 7.34778 12.386 7.44787 12.4248C7.54795 12.4636 7.65502 12.4811 7.76225 12.4762C7.86949 12.4714 7.97453 12.4442 8.07068 12.3965C8.16684 12.3488 8.25199 12.2815 8.32073 12.1991L12.1844 7.56273Z" fill="#74E09E"/>
</svg>
