<svg width="25" height="26" viewBox="0 0 25 26" fill="none" xmlns="http://www.w3.org/2000/svg">
<path d="M3.125 25.5C2.2962 25.5 1.50134 25.1708 0.915291 24.5847C0.32924 23.9987 0 23.2038 0 22.375V3.625C0 2.7962 0.32924 2.00134 0.915291 1.41529C1.50134 0.82924 2.2962 0.5 3.125 0.5L21.875 0.5C22.7038 0.5 23.4987 0.82924 24.0847 1.41529C24.6708 2.00134 25 2.7962 25 3.625V22.375C25 23.2038 24.6708 23.9987 24.0847 24.5847C23.4987 25.1708 22.7038 25.5 21.875 25.5H3.125ZM13.2812 18.4688V9.41719L16.6344 12.7719C16.707 12.8445 16.7932 12.9021 16.8882 12.9414C16.9831 12.9808 17.0848 13.001 17.1875 13.001C17.2902 13.001 17.3919 12.9808 17.4868 12.9414C17.5818 12.9021 17.668 12.8445 17.7406 12.7719C17.8133 12.6992 17.8709 12.613 17.9102 12.5181C17.9495 12.4232 17.9697 12.3215 17.9697 12.2188C17.9697 12.116 17.9495 12.0143 17.9102 11.9194C17.8709 11.8245 17.8133 11.7383 17.7406 11.6656L13.0531 6.97812C12.9806 6.90537 12.8943 6.84765 12.7994 6.80826C12.7045 6.76888 12.6028 6.7486 12.5 6.7486C12.3972 6.7486 12.2955 6.76888 12.2006 6.80826C12.1057 6.84765 12.0194 6.90537 11.9469 6.97812L7.25937 11.6656C7.11268 11.8123 7.03026 12.0113 7.03026 12.2188C7.03026 12.4262 7.11268 12.6252 7.25937 12.7719C7.40607 12.9186 7.60504 13.001 7.8125 13.001C8.01996 13.001 8.21893 12.9186 8.36563 12.7719L11.7188 9.41719V18.4688C11.7188 18.676 11.8011 18.8747 11.9476 19.0212C12.0941 19.1677 12.2928 19.25 12.5 19.25C12.7072 19.25 12.9059 19.1677 13.0524 19.0212C13.1989 18.8747 13.2812 18.676 13.2812 18.4688Z" fill="#ED6C6C" fill-opacity="0.5"/>
</svg>
