<svg width="25" height="25" viewBox="0 0 25 25" fill="none" xmlns="http://www.w3.org/2000/svg">
<path d="M21.875 0C22.7038 0 23.4987 0.329241 24.0847 0.915292C24.6708 1.50134 25 2.2962 25 3.125L25 21.875C25 22.7038 24.6708 23.4987 24.0847 24.0847C23.4987 24.6708 22.7038 25 21.875 25L3.125 25C2.2962 25 1.50134 24.6708 0.915292 24.0847C0.329241 23.4987 0 22.7038 0 21.875L0 3.125C0 2.2962 0.329241 1.50134 0.915292 0.915292C1.50134 0.329241 2.2962 0 3.125 0L21.875 0ZM11.7188 7.03125V16.0828L8.36563 12.7281C8.29299 12.6555 8.20675 12.5979 8.11185 12.5586C8.01694 12.5192 7.91522 12.499 7.8125 12.499C7.70978 12.499 7.60806 12.5192 7.51315 12.5586C7.41825 12.5979 7.33201 12.6555 7.25937 12.7281C7.18674 12.8008 7.12912 12.887 7.08981 12.9819C7.0505 13.0768 7.03026 13.1785 7.03026 13.2812C7.03026 13.384 7.0505 13.4857 7.08981 13.5806C7.12912 13.6755 7.18674 13.7617 7.25937 13.8344L11.9469 18.5219C12.0194 18.5946 12.1057 18.6524 12.2006 18.6917C12.2955 18.7311 12.3972 18.7514 12.5 18.7514C12.6028 18.7514 12.7045 18.7311 12.7994 18.6917C12.8943 18.6524 12.9806 18.5946 13.0531 18.5219L17.7406 13.8344C17.8873 13.6877 17.9697 13.4887 17.9697 13.2812C17.9697 13.0738 17.8873 12.8748 17.7406 12.7281C17.5939 12.5814 17.395 12.499 17.1875 12.499C16.98 12.499 16.7811 12.5814 16.6344 12.7281L13.2813 16.0828V7.03125C13.2813 6.82405 13.1989 6.62534 13.0524 6.47882C12.9059 6.33231 12.7072 6.25 12.5 6.25C12.2928 6.25 12.0941 6.33231 11.9476 6.47882C11.8011 6.62534 11.7188 6.82405 11.7188 7.03125Z" fill="#87DFAA"/>
</svg>
