<svg id="Layer_1" data-name="Layer 1" xmlns="http://www.w3.org/2000/svg" viewBox="0 0 640.64 639.57"><defs><style>.cls-1{fill:#a56a43;}.cls-2{fill:#805434;}.cls-3{fill:#f2d45c;}.cls-4{fill:#f8e9af;}.cls-5{fill:#f19c1f;}.cls-6{fill:#efc31a;}.cls-7{fill:#e47e25;}.cls-8{fill:#fad4aa;}.cls-9{fill:#613e26;}.cls-10{fill:#f2d45a;}.cls-11{fill:#f19c20;}</style></defs><path class="cls-1" d="M638.87,413.65c2,13.17,2.83,27,0,40-1.28,5.87-2.51,11.47-3.72,17.2-8.83,41.86-32.38,71.78-71.72,89-22,9.63-45.09,13.73-69,13.73L287,573.63c-.07-2.33-.2-4.66-.2-7q0-59.49,0-119c0-3,.55-6-.64-8.9-1.43-7.42-6.36-12.29-12.32-16.16-13.89-9-29.58-12.5-45.8-13.84-13.62-1.13-27.23-.25-40.8,1.25,0-21.49-.1-43-.08-64.47,0-18.82.14-37.65.22-56.47,4.12-3.52,5.12-8.84,7.24-13.38,11.94-25.58,27.15-49,44.71-71,4.73-5.93,10.84-10.82,14-18,1.69-.18,2.43-1.6,3.46-2.65,4.06-4.15,8.08-8.35,12.25-12.39a275.49,275.49,0,0,1,62.1-45.43,3.88,3.88,0,0,0,2.23-2.54A72.86,72.86,0,0,0,365,132.63c3.41,2.9,1.54,5.15-.86,7.4-11,10.35-22.22,20.56-33,31.15-6.2,6.07-3.86,15.47,4.09,18.09,4.83,1.59,8.74-.17,12.25-3.49Q364,170.2,380.61,154.71c1.16-1.08,2.2-3.13,4-2.41s1.16,2.92,1.17,4.51c.06,10-.14,20,.1,30,.21,8.58,9,13.6,16,9.25,4.12-2.56,6-6.45,6-11.37-.08-9.66,0-19.31,0-29,0-1.1-.37-2.53.95-3.11s2.07.7,2.89,1.44c1.85,1.67,3.66,3.38,5.47,5.08,9.71,9.08,19.24,18.35,29.18,27.17,5.68,5.05,12.44,4.69,16.47,0,4.42-5.14,3.88-10.62-2-16.25q-15.51-14.82-31.29-29.36c-2.56-2.37-4.49-4.59-1.6-7.94,4.08-.53,8.2-.85,12.23-1.65,7.17-1.41,13.52-5,20-8.13-.55,2.87,1.61,3.2,3.51,3.78,2.23,1.54,2.23,1.54,7,4l1.37.71c9.45,6.21,18.89,12.41,27.8,19.4a340,340,0,0,1,73.34,79.72,384.67,384.67,0,0,1,42.42,85.56,424.58,424.58,0,0,1,19.57,75.17C636.4,398.75,637.7,406.11,638.87,413.65ZM385.64,364c0,5.67.05,11.33,0,17-.06,5.19-.89,5.8-6,4.25-10.86-3.28-15.47-11.21-16.47-22a10.72,10.72,0,0,0-11-10c-5.9.24-10.23,4.9-10.38,11.18-.51,21.26,16.08,40.74,37.29,43.19,5.23.61,7.53,2.29,6.63,7.64a17.77,17.77,0,0,0,.07,5c.43,3.63,1.88,6.63,5.32,8.49,8.44,4.55,16.45-1.16,16.63-11.92.13-8.1.13-8.1,8.07-9.25,22-3.18,39.61-28,35.43-49.76-4-20.93-17.41-33.87-38.86-37.37-2.66-.43-4.74-.63-4.69-4.25.17-12,.13-24,0-36,0-3.32,1.54-4.07,4.36-3.49a20.89,20.89,0,0,1,15.86,13.08c1.18,2.8,1.25,5.83,1.66,8.79.94,6.75,5.65,10.72,11.87,10.29s10.33-5.17,10.22-11.93a42.31,42.31,0,0,0-5.81-20.44c-7.59-13.24-19.27-20.4-34.23-22.28-3-.37-4-1.43-3.95-4.35a44.56,44.56,0,0,0-.46-8.95,10.83,10.83,0,0,0-21.42.88,34.75,34.75,0,0,0-.1,7c.33,3.69-.92,5-4.84,5.56-27.9,4.08-45.22,29.4-37.62,55.59,5.18,17.88,17.49,28.78,36.06,31.69,4.85.76,7,2.18,6.46,7.36C385.27,354,385.65,359,385.64,364Zm219.54,82.2c0-.83,0-1.66,0-2.49.11-8.18-3.66-13-10.28-13.22s-10.83,4.47-11.47,12.39c-.42,5.31-.56,10.62-1.76,15.86-5.55,24.26-18.38,42.44-42.31,51.72a122.09,122.09,0,0,1-40.92,8c-7.29.22-11.93,4.95-11.53,11.54s5.32,10.55,13.33,10.32A137,137,0,0,0,541.86,533c13.62-4.78,26.35-11.41,36.57-21.8C596.11,493.19,603.53,470.84,605.18,446.18Z" transform="translate(-0.07)"/><path class="cls-2" d="M403.94.78c9.62,1.52,16.75,8.86,24.48,14.55,14.94,11,34.14,9.81,48.79-2.26,4.22-3.48,8.46-7,13.59-9.11,8.09-3.39,15.75,1.62,16,10.43.08,3,.12,6,.18,9q-1.35,11.06-2.72,22.12a180.08,180.08,0,0,1-9.07,31.92c-4.4,11-10.74,20.8-17.64,30.31-5.52,5.37-10.58,11.26-17.34,15.23-6.49,3.15-12.84,6.72-20,8.13-4,.8-8.15,1.12-12.23,1.65C437.69,116,445.13,98.33,451.24,80a10.36,10.36,0,0,0,.39-5.4,10.8,10.8,0,0,0-9.53-8.85c-6.15-.51-9.8,1.46-11.8,7.62-6.4,19.84-14.38,38.88-26.61,55.93-3.11,4.34-9.83,5-13,.89a152,152,0,0,1-18.34-31.78c-3.69-8.38-6.5-17.07-9.56-25.68-2.07-5.81-6.92-8.15-13.28-6.82-4.79,1-7.6,5-7.51,10.83.12,8.24,4.37,15.28,7.08,22.7,4.22,11.53,10.18,22.33,16,33.16a72.86,72.86,0,0,1-31.64-8.92c-23.74-16.51-35.81-40.34-42.57-67.57A179.12,179.12,0,0,1,286,16.08C285.82,4.61,293.64-.15,304,5c6,3,10.62,7.94,16.27,11.43,14.47,8.94,29,9,43-.63,7.74-5.31,14.48-13,23.72-15A46.87,46.87,0,0,1,403.94.78Z" transform="translate(-0.07)"/><path class="cls-3" d="M145,591.68c-2.27,2.2-1.49,5.08-1.24,7.54,1.58,15.68-7.4,24.23-20.1,30.29a100.61,100.61,0,0,1-32.82,9,12,12,0,0,0-2.76,1h-33c-5.93-1.3-11.92-2.41-17.8-3.94-15-3.92-29.15-9.3-37.18-24v-58a32.58,32.58,0,0,0,11.41,15.3c10.71,7.62,23,11.32,35.62,13.28,18.92,2.93,37.95,2.93,56.81-1.65,15.2-3.68,29.16-9.12,38.23-22.9,1.74,4.3.57,8.79.85,13.18C143.44,577.79,141.79,585,145,591.68Z" transform="translate(-0.07)"/><path class="cls-4" d="M142.14,557.63c-9.07,13.78-23,19.22-38.23,22.9-18.86,4.58-37.89,4.58-56.81,1.65-12.58-2-24.91-5.66-35.62-13.28A32.58,32.58,0,0,1,.07,553.6v-8c10-16.49,26.65-21.4,44-25,1.31-.16,2.63-.31,3.94-.48,22.11-3,44-2.56,65.41,4.51,11.47,3.79,22.14,9,28.57,20.11l.55,3.64a9.36,9.36,0,0,0,.12,5.47C142.49,555.11,142.31,556.37,142.14,557.63Z" transform="translate(-0.07)"/><path class="cls-5" d="M142,544.74c-6.43-11.09-17.1-16.32-28.57-20.11-21.38-7.07-43.3-7.48-65.41-4.51-1.31.17-2.63.32-3.94.48q0-139.44,0-278.89c0-1.65.18-3.31.28-5a27,27,0,0,0,7.24,10c9.18,7.92,20,12.35,31.65,14.91a144.54,144.54,0,0,0,59.77.95c16.13-3.2,31.63-7.82,42.19-21.87a6.44,6.44,0,0,1,1.63-1.12c.06,2.48.16,5,.18,7.43q.19,21,.35,42.1c-.08,18.82-.2,37.65-.22,56.47,0,21.49,0,43,.08,64.47-1.07,1.6-2.86,1.58-4.44,1.86-6.93,1.23-13.39,3.82-19.78,6.62-13.81,6-20.29,14.93-19.69,26.9-.09,2.65-.25,5.3-.26,7.95q0,42.31,0,84.61C143,540.27,143.45,542.66,142,544.74Z" transform="translate(-0.07)"/><path class="cls-6" d="M142,544.74c1.45-2.08,1-4.47,1-6.76q0-42.3,0-84.61c0-2.65.17-5.3.26-7.95,2.77,2.48,3.27,6.4,6,9,7.28,7,16.12,10.93,25.51,13.95,15.72,5.07,31.92,5.78,48.28,5.3,15.48-.46,30.42-3.39,44.24-10.35,10-5,19.06-11.38,18.79-24.55,1.19,2.9.64,5.94.64,8.9q.07,59.47,0,119c0,2.32.13,4.65.2,7-.47,7.37.94,15-4.3,21.54a37.86,37.86,0,0,1-10.83,9.4c-20.1,11.42-42.07,13.72-64.58,12.86-13.49-.52-26.79-2.63-39.35-7.86-9.24-3.86-18.25-8.2-23-17.89-3.17-6.72-1.52-13.89-2-20.87-.28-4.39.89-8.88-.85-13.18.17-1.26.35-2.52.53-3.78,1.65-1.86,1.74-3.69-.12-5.47Z" transform="translate(-0.07)"/><path class="cls-7" d="M187.37,289.1q-.17-21-.35-42.1c0-2.48-.12-4.95-.18-7.43.38-6.83.71-13.41-4.43-19.23-9.09-10.31-21.24-14.52-33.87-17.49A153.76,153.76,0,0,0,110,198.71q0-55.49,0-111c0-1.66.13-3.32.2-5,2.8,4.1,5.24,8.41,9.42,11.48,8.75,6.4,18.44,10.26,29,12.73,28.69,6.72,56.76,5.57,84-6,9-3.82,16.83-9.37,20.41-19.19.09,8.78.26,17.56.27,26.34q.06,39.3,0,78.6c-3.19,7.14-9.3,12-14,18-17.56,22-32.77,45.46-44.71,71C192.49,280.26,191.49,285.58,187.37,289.1Z" transform="translate(-0.07)"/><path class="cls-8" d="M385.64,364c0-5-.37-10,.11-15,.5-5.18-1.61-6.6-6.46-7.36-18.57-2.91-30.88-13.81-36.06-31.69-7.6-26.19,9.72-51.51,37.62-55.59,3.92-.57,5.17-1.87,4.84-5.56a34.75,34.75,0,0,1,.1-7,10.83,10.83,0,0,1,21.42-.88,44.56,44.56,0,0,1,.46,8.95c-.08,2.92,1,4,3.95,4.35,15,1.88,26.64,9,34.23,22.28A42.31,42.31,0,0,1,451.66,297c.11,6.76-4.09,11.51-10.22,11.93s-10.93-3.54-11.87-10.29c-.41-3-.48-6-1.66-8.79a20.89,20.89,0,0,0-15.86-13.08c-2.82-.58-4.39.17-4.36,3.49.1,12,.14,24,0,36-.05,3.62,2,3.82,4.69,4.25,21.45,3.5,34.84,16.44,38.86,37.37,4.18,21.79-13.47,46.58-35.43,49.76-7.94,1.15-7.94,1.15-8.07,9.25-.18,10.76-8.19,16.47-16.63,11.92-3.44-1.86-4.89-4.86-5.32-8.49a17.77,17.77,0,0,1-.07-5c.9-5.35-1.4-7-6.63-7.64-21.21-2.45-37.8-21.93-37.29-43.19.15-6.28,4.48-10.94,10.38-11.18a10.72,10.72,0,0,1,11,10c1,10.78,5.61,18.71,16.47,22,5.11,1.55,5.94.94,6-4.25C385.69,375.31,385.64,369.65,385.64,364Zm0-65.29c0-5.64,0-11.29,0-16.93,0-5.38-.95-6.06-6.17-4.71-9.36,2.43-16.64,12.33-16.15,22a22.89,22.89,0,0,0,18.37,20.79c2.78.48,4-.19,4-3.2C385.56,310.65,385.64,304.67,385.65,298.69Zm22.06,65.37v14c0,9.27.93,9.85,9.45,5.85.75-.35,1.5-.72,2.22-1.14,7.14-4.2,11.24-13.31,9.88-21.92s-8.16-16.12-16.08-17.92c-3.53-.81-5.77-.42-5.54,4.15C407.94,352.72,407.72,358.4,407.71,364.06Z" transform="translate(-0.07)"/><path class="cls-9" d="M365,132.63c-5.8-10.83-11.76-21.63-16-33.16-2.71-7.42-7-14.46-7.08-22.7-.09-5.88,2.72-9.83,7.51-10.83,6.36-1.33,11.21,1,13.28,6.82,3.06,8.61,5.87,17.3,9.56,25.68a152,152,0,0,0,18.34,31.78c3.2,4.16,9.92,3.45,13-.89,12.23-17.05,20.21-36.09,26.61-55.93,2-6.16,5.65-8.13,11.8-7.62a10.8,10.8,0,0,1,9.53,8.85,10.36,10.36,0,0,1-.39,5.4c-6.11,18.3-13.55,36-23.31,52.69-2.89,3.35-1,5.57,1.6,7.94q15.75,14.58,31.29,29.36c5.89,5.63,6.43,11.11,2,16.25-4,4.68-10.79,5-16.47,0-9.94-8.82-19.47-18.09-29.18-27.17-1.81-1.7-3.62-3.41-5.47-5.08-.82-.74-1.56-2-2.89-1.44s-.95,2-.95,3.11c-.05,9.66-.1,19.31,0,29,0,4.92-1.85,8.81-6,11.37-7,4.35-15.79-.67-16-9.25-.24-10,0-20-.1-30,0-1.59.67-3.77-1.17-4.51s-2.84,1.33-4,2.41Q364,170.21,347.48,185.78c-3.51,3.32-7.42,5.08-12.25,3.49-8-2.62-10.29-12-4.09-18.09,10.81-10.59,22-20.8,33-31.15C366.57,137.78,368.44,135.53,365,132.63Z" transform="translate(-0.07)"/><path class="cls-10" d="M286.15,438.79c.27,13.17-8.82,19.52-18.79,24.55-13.82,7-28.76,9.89-44.24,10.35-16.36.48-32.56-.23-48.28-5.3-9.39-3-18.23-7-25.51-13.95-2.74-2.62-3.24-6.54-6-9-.6-12,5.88-20.86,19.69-26.9,6.39-2.8,12.85-5.39,19.78-6.62,1.58-.28,3.37-.26,4.44-1.86,13.57-1.5,27.18-2.38,40.8-1.25,16.22,1.34,31.91,4.8,45.8,13.84C279.79,426.5,284.72,431.37,286.15,438.79Z" transform="translate(-0.07)"/><path class="cls-8" d="M605.18,446.18c-1.65,24.66-9.07,47-26.75,65-10.22,10.39-22.95,17-36.57,21.8a137,137,0,0,1-41.62,7.39c-8,.23-12.93-3.64-13.33-10.32s4.24-11.32,11.53-11.54a122.09,122.09,0,0,0,40.92-8c23.93-9.28,36.76-27.46,42.31-51.72,1.2-5.24,1.34-10.55,1.76-15.86.64-7.92,5-12.56,11.47-12.39s10.39,5,10.28,13.22C605.17,444.52,605.18,445.35,605.18,446.18Z" transform="translate(-0.07)"/><path class="cls-6" d="M110,198.71a153.76,153.76,0,0,1,38.51,4.14c12.63,3,24.78,7.18,33.87,17.49,5.14,5.82,4.81,12.4,4.43,19.23a6.44,6.44,0,0,0-1.63,1.12c-10.56,14.05-26.06,18.67-42.19,21.87a144.54,144.54,0,0,1-59.77-.95c-11.63-2.56-22.47-7-31.65-14.91a27,27,0,0,1-7.24-10c-1.55-10.26,3-18.28,13.79-24.62,14.49-8.55,30.51-11.51,46.93-13.06C106.72,198.9,108.38,198.82,110,198.71Z" transform="translate(-0.07)"/><path class="cls-11" d="M253.06,81.78c-3.58,9.82-11.41,15.37-20.41,19.19-27.27,11.58-55.34,12.73-84,6-10.53-2.47-20.22-6.33-29-12.73-4.18-3.07-6.62-7.38-9.42-11.48-1.3-14,7.31-21.37,18.22-26.87,19.55-9.85,40.61-11.78,62.09-10.75,15.56.74,30.64,3.65,44.69,10.73a43.59,43.59,0,0,1,12.37,9.05C252.13,69.74,254,75.26,253.06,81.78Z" transform="translate(-0.07)"/><path class="cls-3" d="M142.55,548.38c1.86,1.78,1.77,3.61.12,5.47A9.36,9.36,0,0,1,142.55,548.38Z" transform="translate(-0.07)"/><path class="cls-1" d="M385.64,298.69c0,6-.08,12,0,17.93.06,3-1.2,3.68-4,3.2A22.89,22.89,0,0,1,363.32,299c-.49-9.65,6.79-19.55,16.15-22,5.22-1.35,6.14-.67,6.17,4.71C385.67,287.4,385.65,293.05,385.64,298.69Z" transform="translate(-0.07)"/><path class="cls-1" d="M407.71,364.06c0-5.66.23-11.34-.07-17-.23-4.57,2-5,5.54-4.15,7.92,1.8,14.73,9.35,16.08,17.92s-2.74,17.72-9.88,21.92c-.72.42-1.47.79-2.22,1.14-8.52,4-9.45,3.42-9.45-5.85Z" transform="translate(-0.07)"/></svg>